HIERARCHY
ROOT root
{
	OFFSET	0	13.1	24.9
	CHANNELS 6  Xposition Yposition Zposition Xrotation Yrotation Zrotation
	JOINT spine_1
	{
		OFFSET	0	9.99999	0
		CHANNELS 3  Xrotation Yrotation Zrotation
		JOINT spine_2
		{
			OFFSET	0	112	-10
			CHANNELS 3  Xrotation Yrotation Zrotation
			JOINT spine_3
			{
				OFFSET	0	206.5	19.3
				CHANNELS 3  Xrotation Yrotation Zrotation
				JOINT spine_4
				{
					OFFSET	0	110.4	14.6
					CHANNELS 3  Xrotation Yrotation Zrotation
					JOINT neck_1
					{
						OFFSET	0	71.8	-50.3
						CHANNELS 3  Xrotation Yrotation Zrotation
						JOINT neck_2
						{
							OFFSET	0	86.2	-25.8
							CHANNELS 3  Xrotation Yrotation Zrotation
							JOINT head_ee
							{
								OFFSET	0	179.8	-8.7
								CHANNELS 3  Xrotation Yrotation Zrotation
								End Site
								{
									OFFSET	1	0	0
								}
							}
						}
					}
					JOINT left_clavicle
					{
						OFFSET	-43.2	22.4	-70.8
						CHANNELS 3  Xrotation Yrotation Zrotation
						JOINT left_shoulder
						{
							OFFSET	-93.9	-5.79999	48.7
							CHANNELS 3  Xrotation Yrotation Zrotation
							JOINT left_elbow
							{
								OFFSET	-291.4	-30.8	15.2
								CHANNELS 3  Xrotation Yrotation Zrotation
								JOINT left_lowarm_twist
								{
									OFFSET	-110.7	-3.89999	13.6
									CHANNELS 3  Xrotation Yrotation Zrotation
									JOINT left_hand
									{
										OFFSET	-110.7	-3.89999	13.6
										CHANNELS 3  Xrotation Yrotation Zrotation
										JOINT left_ee
										{
											OFFSET	-80.8	-5.10001	12.1
											CHANNELS 3  Xrotation Yrotation Zrotation
											End Site
											{
												OFFSET	1	0	0
											}
										}
									}
								}
							}
						}
					}
					JOINT right_clavicle
					{
						OFFSET	43.2	22.4	-70.8
						CHANNELS 3  Xrotation Yrotation Zrotation
						JOINT right_shoulder
						{
							OFFSET	93.9	-5.79999	48.7
							CHANNELS 3  Xrotation Yrotation Zrotation
							JOINT right_elbow
							{
								OFFSET	291.4	-30.8	15.2
								CHANNELS 3  Xrotation Yrotation Zrotation
								JOINT right_lowarm_twist
								{
									OFFSET	110.7	-3.89999	13.6
									CHANNELS 3  Xrotation Yrotation Zrotation
									JOINT right_hand
									{
										OFFSET	110.7	-3.89999	13.6
										CHANNELS 3  Xrotation Yrotation Zrotation
										JOINT right_ee
										{
											OFFSET	80.8	-5.10001	12.1
											CHANNELS 3  Xrotation Yrotation Zrotation
											End Site
											{
												OFFSET	1	0	0
											}
										}
									}
								}
							}
						}
					}
				}
			}
		}
	}
	JOINT left_hip
	{
		OFFSET	-82.8	-127.5	0.300001
		CHANNELS 3  Xrotation Yrotation Zrotation
		JOINT left_knee
		{
			OFFSET	-28.2	-396.7	2.2
			CHANNELS 3  Xrotation Yrotation Zrotation
			JOINT left_ankle
			{
				OFFSET	-11.7	-411.3	35.4
				CHANNELS 3  Xrotation Yrotation Zrotation
				JOINT left_toes
				{
					OFFSET	0	-60	-88.6
					CHANNELS 3  Xrotation Yrotation Zrotation
					JOINT left_foot_ee
					{
						OFFSET	-22.5	-16.5	-42.2
						CHANNELS 3  Xrotation Yrotation Zrotation
						End Site
						{
							OFFSET	1	0	0
						}
					}
				}
			}
		}
	}
	JOINT right_hip
	{
		OFFSET	82.8	-127.5	0.300001
		CHANNELS 3  Xrotation Yrotation Zrotation
		JOINT right_knee
		{
			OFFSET	28.2	-396.7	2.2
			CHANNELS 3  Xrotation Yrotation Zrotation
			JOINT right_ankle
			{
				OFFSET	11.7	-411.3	35.4
				CHANNELS 3  Xrotation Yrotation Zrotation
				JOINT right_toes
				{
					OFFSET	0	-60	-88.6
					CHANNELS 3  Xrotation Yrotation Zrotation
					JOINT right_foot_ee
					{
						OFFSET	22.5	-16.5	-42.2
						CHANNELS 3  Xrotation Yrotation Zrotation
						End Site
						{
							OFFSET	1	0	0
						}
					}
				}
			}
		}
	}
}
MOTION
Frames: 16
Frame Time: 0.02
2437.49 732.52 -553.304 138.534 -70.6128 144.56 -2.75727 0.00856859 -1.17155 -2.75652 0.0830951 -1.16864 -2.75745 0.380658 -1.10803 -2.75911 0.2009 -1.15424 -11.353 10.3785 3.4015 -11.4668 17.4289 6.11806 -0.0 0.0 -0.0 5.47178 21.7142 10.3599 -19.7271 -12.9481 61.7513 0.232603 -6.57306 0.013357 0.146568 0.00514108 -0.0180126 -0.324772 29.0603 9.58962 -0.0 0.0 -0.0 8.53221 9.61829 -16.6625 18.379 9.52248 -69.4525 1.00279 26.4155 -0.235352 53.003 1.19209 6.42643 -0.0780158 -26.6567 -10.0815 0.0 0.0 0.0 17.9639 23.3825 -26.1382 -43.7864 -0.725057 6.52003 10.7491 -12.3156 -1.6231 -12.6798 0.0 0.0 -0.0 0.0 -0.0 -13.6174 16.2259 -12.5828 -6.92474 -0.222553 -1.0388 24.1624 9.61071 3.36861 -22.3974 0.0 0.0 0.0 0.0 0.0 
2453.94 729.993 -558.931 135.477 -71.3316 141.335 -2.8406 0.0591019 -1.12622 -2.83991 0.130642 -1.12018 -2.84181 0.415701 -1.04837 -2.84326 0.244924 -1.10086 -10.0839 10.8877 0.488779 -10.2222 20.1846 3.24751 -0.0 0.0 -0.0 6.04611 22.5866 11.1448 -20.8576 -11.7933 60.3766 0.192661 -5.45185 0.00917304 -1.36847 -0.0502228 0.167535 -0.0481315 29.2591 11.1703 -0.0 0.0 -0.0 9.00324 14.6105 -17.5096 19.9423 8.53058 -65.4285 0.979705 25.8876 -0.225176 57.5442 1.56024 6.87682 1.47889 -23.8615 -18.274 0.0 0.0 0.0 18.168 21.7465 -22.636 -35.6712 -0.214582 5.38282 8.83158 -6.5798 -1.30197 -13.4159 0.0 0.0 -0.0 0.0 -0.0 -15.3629 17.2943 -11.7753 -7.85702 -0.24287 -1.18042 19.5998 9.67221 2.80047 -18.1892 0.0 0.0 0.0 0.0 0.0 
2469.42 731.81 -561.738 133.088 -72.1453 138.774 -3.0599 0.04846 -1.07942 -3.05926 0.117044 -1.07415 -3.06081 0.394513 -1.00592 -3.06215 0.230705 -1.05559 -10.522 11.1376 0.254309 -10.6917 20.8498 3.16882 -0.0 0.0 -0.0 5.90633 23.3301 10.8972 -21.4976 -11.1485 60.2716 0.277503 -7.82739 0.018985 -2.20639 -0.0829471 0.269518 0.787181 29.5265 15.8716 -0.0 0.0 -0.0 9.3811 18.1182 -18.1512 21.0432 7.98377 -62.8938 1.01623 26.7206 -0.241362 61.9993 1.95512 7.28924 2.52707 -21.4525 -24.2385 0.0 0.0 0.0 18.4724 21.7106 -20.4794 -28.5954 0.0952978 4.34197 6.7167 -2.93362 -0.983161 -14.594 0.0 0.0 -0.0 0.0 -0.0 -17.4674 18.807 -11.3023 -4.68838 -0.164443 -0.700535 12.7548 6.83591 1.85427 -14.8336 0.0 0.0 0.0 0.0 0.0 
2483.31 727.484 -566.48 131.666 -72.7824 137.093 -3.12575 -0.0467538 -0.817901 -3.12538 0.00538437 -0.819219 -3.12501 0.220795 -0.788924 -3.12586 0.0934325 -0.813891 -9.5041 11.1601 -2.12083 -9.62396 22.416 0.667712 -0.0 0.0 -0.0 6.32036 23.6215 11.4635 -21.9628 -10.6271 59.4113 0.197894 -5.59901 0.00967691 -3.81694 -0.150025 0.464164 0.732684 29.5756 15.5817 -0.0 0.0 -0.0 9.56905 20.7366 -18.3848 21.2116 7.81599 -60.5162 1.1068 28.7341 -0.283507 63.7302 2.11704 7.44106 3.52406 -20.5574 -30.8176 0.0 0.0 0.0 18.907 20.5008 -19.0517 -22.7954 0.251973 3.46604 5.34116 -1.50871 -0.781711 -15.5504 0.0 0.0 -0.0 0.0 -0.0 -18.7909 20.6366 -10.5085 -3.71228 -0.134946 -0.553639 13.4145 8.43055 1.95967 -12.5418 0.0 0.0 0.0 0.0 0.0 
2495.27 727.192 -567.39 135.5 -72.4127 141.345 -3.12722 0.00353361 -0.870665 -3.1268 0.058927 -0.868676 -3.12723 0.285505 -0.822534 -3.12815 0.152023 -0.857298 -9.18395 10.8009 -1.54033 -9.28104 21.3281 1.08121 -0.0 0.0 -0.0 6.46666 24.3281 11.6126 -22.2227 -9.63812 59.9229 0.201802 -5.70885 0.0100619 -4.7379 -0.190837 0.574607 0.665544 29.2592 15.1121 -0.0 0.0 -0.0 9.75535 22.513 -18.6546 22.7393 8.43823 -59.2048 1.17977 30.302 -0.319464 65.7316 2.3099 7.61045 3.51822 -22.4027 -31.1629 0.0 0.0 0.0 18.9216 20.8693 -17.5933 -9.6807 0.275933 1.4583 -0.230721 3.60173 0.0339026 -16.7948 0.0 0.0 -0.0 0.0 -0.0 -20.1718 20.5781 -10.2299 -0.0671641 -0.0027597 -0.0099375 10.2521 9.60459 1.52631 -12.4408 0.0 0.0 0.0 0.0 0.0 
2513.4 722.073 -567.664 136.303 -72.1774 142.19 -3.26263 0.10847 -0.712734 -3.26236 0.153602 -0.704388 -3.26403 0.335122 -0.63832 -3.26452 0.230108 -0.683233 -9.4447 10.4881 -1.44909 -9.54899 20.6935 1.14159 -0.0 0.0 -0.0 6.39413 24.8199 11.4708 -23.0376 -8.63143 59.575 0.247612 -6.99312 0.0151297 -6.05716 -0.252386 0.731659 0.952705 29.3928 16.7623 -0.0 0.0 -0.0 9.43087 24.1385 -17.7814 21.873 9.52853 -58.8789 1.36394 34.0434 -0.417582 68.3455 2.57052 7.82142 3.76378 -24.0222 -33.1969 0.0 0.0 0.0 19.9216 20.1358 -17.3656 -6.7467 0.218412 1.01179 -3.43429 4.78675 0.507474 -12.5772 0.0 0.0 -0.0 0.0 -0.0 -22.7973 22.2677 -9.61976 2.89946 0.130213 0.425796 13.4512 8.50143 1.96543 -15.632 0.0 0.0 0.0 0.0 0.0 
2537.82 714.318 -564.58 136.231 -72.4572 141.879 -3.37666 0.167996 -0.651368 -3.37645 0.209103 -0.639358 -3.37866 0.372485 -0.560143 -3.37899 0.279348 -0.611939 -8.04429 9.8244 0.298805 -8.08071 18.1395 2.4604 -0.0 0.0 -0.0 5.58793 24.8158 10.3625 -23.9357 -8.58335 60.1936 0.291619 -8.22025 0.0209554 -8.38199 -0.369611 1.00487 0.97361 29.2672 16.8446 -0.0 0.0 -0.0 9.85034 25.5106 -18.5807 21.7076 10.7113 -57.3889 1.54216 37.3752 -0.52165 71.058 2.85089 8.02761 3.39181 -23.3172 -30.4636 0.0 0.0 0.0 20.1161 19.6529 -16.9666 -2.49166 0.0945422 0.370671 -6.96689 5.9415 1.03509 -10.7781 0.0 0.0 -0.0 0.0 -0.0 -25.7907 22.7733 -8.91827 5.66948 0.27463 0.826077 15.8172 9.04404 2.29369 -18.7252 0.0 0.0 0.0 0.0 0.0 
2557.96 711.425 -564.569 137.251 -71.8093 142.926 -3.42164 0.0956266 -0.573817 -3.42146 0.131946 -0.56657 -3.42263 0.279058 -0.510431 -3.42294 0.194944 -0.548095 -6.70585 8.81777 0.190939 -6.69653 16.2253 1.94506 -0.0 0.0 -0.0 5.1635 24.4111 9.80103 -24.082 -8.46775 61.5131 0.293677 -8.27745 0.0212506 -6.67091 -0.282252 0.804238 1.43078 29.3297 19.4676 -0.0 0.0 -0.0 9.25483 26.6511 -17.1325 22.2736 11.2924 -58.3538 1.58988 38.2205 -0.550896 74.5754 3.22845 8.2749 3.24104 -24.5433 -29.6706 0.0 0.0 0.0 20.1891 19.4811 -16.2361 1.98813 -0.0869612 -0.292665 -9.67995 7.33487 1.4429 -9.52846 0.0 0.0 -0.0 0.0 -0.0 -27.1501 24.2932 -8.12868 6.13387 0.300734 0.892494 25.4344 9.09838 3.51143 -21.3559 0.0 0.0 0.0 0.0 0.0 
2572.3 707.87 -573.647 137.183 -71.0777 142.481 -3.45294 0.0501395 -0.603624 -3.45274 0.0884473 -0.59921 -3.45347 0.246204 -0.553408 -3.45386 0.155715 -0.585345 -5.62923 8.53122 1.27753 -5.59704 14.7991 2.8486 -0.0 0.0 -0.0 4.96332 24.0166 9.54103 -24.1383 -8.12645 63.3713 0.306121 -8.62301 0.0230792 -8.59393 -0.380848 1.02954 1.56223 29.6244 20.2988 -0.0 0.0 -0.0 9.28072 27.3751 -17.11 22.0068 12.3415 -57.2228 1.62748 38.8729 -0.574324 77.1992 3.51958 8.44407 3.34152 -25.9629 -30.6033 0.0 0.0 0.0 19.5017 20.1875 -14.3399 5.98374 -0.292235 -0.871045 -7.9451 5.32935 1.18296 -8.93201 0.0 0.0 -0.0 0.0 -0.0 -27.0673 24.5425 -6.96426 6.13681 0.3009 0.892915 30.5948 11.5303 4.14418 -27.4559 0.0 0.0 0.0 0.0 0.0 
2585.2 704.681 -574.169 139.551 -70.7176 144.631 -3.43448 0.00907692 -0.454066 -3.43437 0.0379516 -0.452568 -3.43454 0.158018 -0.425781 -3.43478 0.0887914 -0.445393 -6.73518 7.96546 3.05253 -6.71265 12.5699 4.63767 -0.0 0.0 -0.0 4.91626 24.0785 9.47363 -23.4809 -7.96738 63.9011 0.321391 -9.04621 0.0254245 -9.56606 -0.433562 1.14216 1.70227 29.4271 21.0638 -0.0 0.0 -0.0 9.36576 27.447 -17.2908 22.1699 12.9563 -57.114 1.68786 39.8962 -0.612638 80.8171 3.93308 8.65516 3.24772 -25.9352 -29.9694 0.0 0.0 0.0 20.6719 19.8333 -14.5632 7.42745 -0.376283 -1.07639 -8.13565 0.293079 1.22266 -9.18841 0.0 0.0 -0.0 0.0 -0.0 -27.0557 24.9126 -6.65825 4.87513 0.231234 0.711996 34.9378 10.7182 4.5749 -30.8598 0.0 0.0 0.0 0.0 0.0 
2605.54 703.359 -578.796 142.039 -69.5661 147.453 -3.69419 0.035396 -0.398034 -3.6941 0.060652 -0.394975 -3.69443 0.166079 -0.363458 -3.6946 0.106594 -0.385125 -5.31093 7.65365 3.54868 -5.26429 11.4513 4.95731 -0.0 0.0 -0.0 4.75633 23.7667 9.26248 -23.209 -8.29347 65.6875 0.400824 -11.2306 0.0394093 -10.9926 -0.514365 1.30578 1.75803 29.5282 21.4127 -0.0 0.0 -0.0 9.54354 27.3539 -17.6966 22.4228 13.277 -57.0285 1.7513 40.9394 -0.653772 81.3142 3.99091 8.68211 3.15205 -27.5261 -29.6062 0.0 0.0 0.0 21.0599 19.0626 -15.0124 8.58831 -0.447612 -1.23995 -8.35643 -0.37449 1.25852 -8.83318 0.0 0.0 -0.0 0.0 -0.0 -28.4467 25.1396 -5.64301 5.50747 0.26565 0.802858 35.5085 10.8993 4.635 -32.6649 0.0 0.0 0.0 0.0 0.0 
2622.94 698.64 -579.434 145.425 -69.2009 151.125 -3.63657 0.045171 -0.457236 -3.63646 0.0741743 -0.453436 -3.63693 0.194617 -0.41621 -3.63715 0.126443 -0.441722 -5.85264 7.49571 4.5922 -5.79323 10.4548 6.02067 -0.0 0.0 -0.0 4.85122 24.1395 9.38164 -23.2893 -8.11089 65.7007 0.443047 -12.3788 0.0480476 -12.537 -0.606422 1.48063 1.67818 29.4942 20.9394 -0.0 0.0 -0.0 9.84323 27.4631 -18.3518 23.029 13.7965 -57.2844 1.75946 41.0712 -0.659124 83.0135 4.19028 8.77043 3.00454 -28.725 -28.8472 0.0 0.0 0.0 21.6915 18.3946 -15.4983 9.42753 -0.501243 -1.3573 -8.96751 -1.37913 1.35581 -9.2936 0.0 0.0 -0.0 0.0 -0.0 -29.0246 25.3025 -5.12639 5.49569 0.265 0.801168 35.6382 10.3987 4.63595 -34.1287 0.0 0.0 0.0 0.0 0.0 
2648.62 692.231 -577.212 146.813 -68.9018 153.002 -3.65684 0.227047 -0.406858 -3.65678 0.252476 -0.391587 -3.65854 0.349515 -0.308096 -3.65855 0.296471 -0.359429 -6.15627 7.16723 5.26576 -6.08338 9.39164 6.65493 -0.0 0.0 -0.0 4.47442 24.3129 8.85852 -23.7117 -8.58708 66.0148 0.524238 -14.5579 0.066961 -13.5531 -0.669554 1.5943 1.67818 29.0842 20.8415 -0.0 0.0 -0.0 10.2421 27.229 -19.2696 22.8657 13.632 -57.1719 1.77178 41.2693 -0.667236 84.3137 4.34453 8.83399 2.96741 -27.7339 -28.4446 0.0 0.0 0.0 22.6316 17.8883 -16.1291 7.78949 -0.398171 -1.12755 -5.71643 -3.42527 0.865562 -6.90231 0.0 0.0 -0.0 0.0 -0.0 -29.5017 25.471 -5.1422 3.79128 0.174589 0.555408 39.2585 10.4112 4.97164 -32.2787 0.0 0.0 0.0 0.0 0.0 
2673.01 691.178 -577.012 147.703 -68.3812 153.985 -3.69032 0.306382 -0.357234 -3.6903 0.328493 -0.337015 -3.69235 0.40795 -0.234655 -3.69224 0.365771 -0.296139 -6.1801 7.47141 5.53609 -6.09968 9.75985 6.98478 -0.0 0.0 -0.0 4.75983 24.4298 9.2462 -24.2086 -9.55424 65.1602 0.58389 -16.1322 0.0827482 -15.1839 -0.77508 1.77439 1.24654 28.7712 18.2621 -0.0 0.0 -0.0 10.6983 27.1747 -20.299 22.2384 13.4436 -57.4264 1.77778 41.3653 -0.671201 85.2169 4.45252 8.87609 2.83776 -27.7351 -27.6157 0.0 0.0 0.0 23.2244 17.0181 -17.3113 1.83807 -0.0800433 -0.270681 -8.59524 -1.6684 1.29997 -5.68575 0.0 0.0 -0.0 0.0 -0.0 -31.0881 25.0635 -4.43957 1.99627 0.0873378 0.293858 37.1345 8.96406 4.74656 -32.5586 0.0 0.0 0.0 0.0 0.0 
2690.62 688.612 -578.562 149.495 -67.7018 156.122 -3.7748 0.25879 -0.393954 -3.77476 0.283334 -0.376688 -3.77668 0.375742 -0.284588 -3.77665 0.326081 -0.340358 -6.35282 8.72161 6.2727 -6.25062 11.5663 7.97039 -0.0 0.0 -0.0 4.63832 23.8009 9.09765 -22.8472 -10.26 65.8159 0.628825 -17.302 0.0956743 -15.7923 -0.815758 1.8408 1.23365 28.3067 18.062 -0.0 0.0 -0.0 11.2999 27.4608 -21.621 21.5272 13.4989 -57.0724 1.75588 41.0134 -0.656773 85.1705 4.44695 8.87396 2.53258 -27.5436 -25.6567 0.0 0.0 0.0 22.6828 16.7589 -18.0137 2.05751 -0.0901793 -0.302824 -11.1588 -3.55715 1.70499 -5.75433 0.0 0.0 -0.0 0.0 -0.0 -30.8095 25.1315 -3.91805 0.725427 0.0305511 0.107128 36.3557 5.78725 4.6154 -33.3477 0.0 0.0 0.0 0.0 0.0 
2715.38 687.905 -579.546 150.032 -66.7837 156.855 -3.87841 0.266778 -0.370398 -3.87838 0.289807 -0.352672 -3.88024 0.375852 -0.259038 -3.88019 0.330225 -0.315146 -5.99717 9.32848 5.88316 -5.90166 12.9178 7.66744 -0.0 0.0 -0.0 4.89978 23.7027 9.46417 -22.5663 -11.5795 65.4541 0.642082 -17.6443 0.0996549 -17.8003 -0.954999 2.05689 1.1796 29.1809 17.9896 -0.0 0.0 -0.0 11.3647 27.3926 -21.7756 20.8303 13.8864 -57.9419 1.72908 40.5777 -0.639266 84.9791 4.42402 8.86517 1.73657 -28.0256 -20.9287 0.0 0.0 0.0 22.3569 15.8504 -18.2988 -0.933363 0.0373053 0.138377 -13.7507 -1.20616 2.09021 -6.46308 0.0 0.0 -0.0 0.0 -0.0 -32.3296 25.2304 -2.82506 -0.519392 -0.0210378 -0.0769299 35.389 6.059 4.52762 -34.8751 0.0 0.0 0.0 0.0 0.0 
